<svg xmlns="http://www.w3.org/2000/svg" width="1280" height="668">
<rect width="100%" height="100%" fill="#ffffff" />
<text x="380" y="40" font-family="Arial, sans-serif" font-size="24" font-weight="700">Top Standards by Question Count</text>
<text x="370" y="90" text-anchor="end" font-family="Arial, sans-serif" font-size="13">R.CCR.10</text>
<rect x="380" y="76" width="760.00" height="18" fill="#2563eb" opacity="0.88" />
<text x="1148.00" y="90" font-family="Arial, sans-serif" font-size="12">890</text>
<text x="370" y="118" text-anchor="end" font-family="Arial, sans-serif" font-size="13">RI.11-12.10</text>
<rect x="380" y="104" width="760.00" height="18" fill="#2563eb" opacity="0.88" />
<text x="1148.00" y="118" font-family="Arial, sans-serif" font-size="12">890</text>
<text x="370" y="146" text-anchor="end" font-family="Arial, sans-serif" font-size="13">L.11-12.3</text>
<rect x="380" y="132" width="684.85" height="18" fill="#2563eb" opacity="0.88" />
<text x="1072.85" y="146" font-family="Arial, sans-serif" font-size="12">802</text>
<text x="370" y="174" text-anchor="end" font-family="Arial, sans-serif" font-size="13">L.11-12.5</text>
<rect x="380" y="160" width="684.85" height="18" fill="#2563eb" opacity="0.88" />
<text x="1072.85" y="174" font-family="Arial, sans-serif" font-size="12">802</text>
<text x="370" y="202" text-anchor="end" font-family="Arial, sans-serif" font-size="13">L.11-12.6</text>
<rect x="380" y="188" width="684.85" height="18" fill="#2563eb" opacity="0.88" />
<text x="1072.85" y="202" font-family="Arial, sans-serif" font-size="12">802</text>
<text x="370" y="230" text-anchor="end" font-family="Arial, sans-serif" font-size="13">L.CCR.3</text>
<rect x="380" y="216" width="684.85" height="18" fill="#2563eb" opacity="0.88" />
<text x="1072.85" y="230" font-family="Arial, sans-serif" font-size="12">802</text>
<text x="370" y="258" text-anchor="end" font-family="Arial, sans-serif" font-size="13">L.CCR.5</text>
<rect x="380" y="244" width="684.85" height="18" fill="#2563eb" opacity="0.88" />
<text x="1072.85" y="258" font-family="Arial, sans-serif" font-size="12">802</text>
<text x="370" y="286" text-anchor="end" font-family="Arial, sans-serif" font-size="13">L.CCR.6</text>
<rect x="380" y="272" width="684.85" height="18" fill="#2563eb" opacity="0.88" />
<text x="1072.85" y="286" font-family="Arial, sans-serif" font-size="12">802</text>
<text x="370" y="314" text-anchor="end" font-family="Arial, sans-serif" font-size="13">A-SSE.1</text>
<rect x="380" y="300" width="671.19" height="18" fill="#2563eb" opacity="0.88" />
<text x="1059.19" y="314" font-family="Arial, sans-serif" font-size="12">786</text>
<text x="370" y="342" text-anchor="end" font-family="Arial, sans-serif" font-size="13">A-REI.1</text>
<rect x="380" y="328" width="667.78" height="18" fill="#2563eb" opacity="0.88" />
<text x="1055.78" y="342" font-family="Arial, sans-serif" font-size="12">782</text>
<text x="370" y="370" text-anchor="end" font-family="Arial, sans-serif" font-size="13">RL.11-12.10</text>
<rect x="380" y="356" width="612.27" height="18" fill="#2563eb" opacity="0.88" />
<text x="1000.27" y="370" font-family="Arial, sans-serif" font-size="12">717</text>
<text x="370" y="398" text-anchor="end" font-family="Arial, sans-serif" font-size="13">W.11-12.5</text>
<rect x="380" y="384" width="597.75" height="18" fill="#2563eb" opacity="0.88" />
<text x="985.75" y="398" font-family="Arial, sans-serif" font-size="12">700</text>
<text x="370" y="426" text-anchor="end" font-family="Arial, sans-serif" font-size="13">W.CCR.5</text>
<rect x="380" y="412" width="597.75" height="18" fill="#2563eb" opacity="0.88" />
<text x="985.75" y="426" font-family="Arial, sans-serif" font-size="12">700</text>
<text x="370" y="454" text-anchor="end" font-family="Arial, sans-serif" font-size="13">A-SSE.2</text>
<rect x="380" y="440" width="536.27" height="18" fill="#2563eb" opacity="0.88" />
<text x="924.27" y="454" font-family="Arial, sans-serif" font-size="12">628</text>
<text x="370" y="482" text-anchor="end" font-family="Arial, sans-serif" font-size="13">F-LE.1</text>
<rect x="380" y="468" width="440.63" height="18" fill="#2563eb" opacity="0.88" />
<text x="828.63" y="482" font-family="Arial, sans-serif" font-size="12">516</text>
<text x="370" y="510" text-anchor="end" font-family="Arial, sans-serif" font-size="13">A-CED.2</text>
<rect x="380" y="496" width="427.82" height="18" fill="#2563eb" opacity="0.88" />
<text x="815.82" y="510" font-family="Arial, sans-serif" font-size="12">501</text>
<text x="370" y="538" text-anchor="end" font-family="Arial, sans-serif" font-size="13">A-REI.10</text>
<rect x="380" y="524" width="427.82" height="18" fill="#2563eb" opacity="0.88" />
<text x="815.82" y="538" font-family="Arial, sans-serif" font-size="12">501</text>
<text x="370" y="566" text-anchor="end" font-family="Arial, sans-serif" font-size="13">R.CCR.1</text>
<rect x="380" y="552" width="408.18" height="18" fill="#2563eb" opacity="0.88" />
<text x="796.18" y="566" font-family="Arial, sans-serif" font-size="12">478</text>
<text x="370" y="594" text-anchor="end" font-family="Arial, sans-serif" font-size="13">R.CCR.8</text>
<rect x="380" y="580" width="408.18" height="18" fill="#2563eb" opacity="0.88" />
<text x="796.18" y="594" font-family="Arial, sans-serif" font-size="12">478</text>
<text x="370" y="622" text-anchor="end" font-family="Arial, sans-serif" font-size="13">RI.11-12.1</text>
<rect x="380" y="608" width="408.18" height="18" fill="#2563eb" opacity="0.88" />
<text x="796.18" y="622" font-family="Arial, sans-serif" font-size="12">478</text>
</svg>
